# xmcd
#
# Track frame offsets: 
#        150
#        20533
#        46301
#        68107
#        87449
#        111723
#        142807
#        171812
#        194861
#        216967
#        245362
#        268787
#        298230
#        317201
#
# Disc length: 4518 seconds
#
# Revision: 1
# Processed by: cddbd v1.5.2PL0 Copyright (c) Steve Scherf et al.
# Submitted via: ExactAudioCopyFreeDBPlugin 1.0
#
DISCID=e211a40e
DTITLE=平井 堅 - 裏 歌バカ Disc3 (Kh re-mixed up2)
DYEAR=2010
DGENRE=R&B
TTITLE0=KISS OF LIFE (S.O.U.L. Remix =Sound Of Urban London=)
TTITLE1=バイマイメロディー -HALFBY's music for mono REMIX-
TTITLE2=CANDY -Suspicious Remix-
TTITLE3=style (D.O.I. re-M.I.X.)
TTITLE4=nostalgia ～s,w,k, mix～
TTITLE5=Missin' you ～It will break my heart～ (remix ascended)
TTITLE6=Strawberry Sex ～Sweet Mix～
TTITLE7=POP STAR x fake star (MASH UP version)
TTITLE8=Come Back ～FILUR Deep Down and Low Remix～
TTITLE9=キミはともだち (Soul Source Production Mix)
TTITLE10=世界で一番君が好き? (Funknown mix)
TTITLE11=Sing Forever (STUDIO APARTMENT Remix)
TTITLE12=Pain (Serph Remix)
TTITLE13=僕は君に恋をする (rei harakami remix)
EXTD=YEAR: 2010
EXTT0=
EXTT1=
EXTT2=
EXTT3=
EXTT4=
EXTT5=
EXTT6=
EXTT7=
EXTT8=
EXTT9=
EXTT10=
EXTT11=
EXTT12=
EXTT13=
PLAYORDER=
